<svg width="190" height="49" viewBox="0 0 190 49" fill="none" xmlns="http://www.w3.org/2000/svg">
<path d="M0.798828 14.7178C0.798828 10.8496 2.16016 7.5542 4.88281 4.83154C7.62207 2.10889 10.9175 0.747559 14.769 0.747559C18.6206 0.747559 21.916 2.10889 24.6553 4.83154C27.3779 7.5542 28.7393 10.8496 28.7393 14.7178C28.7393 18.5693 27.3779 21.8564 24.6553 24.5791C21.916 27.3018 18.6206 28.6631 14.769 28.6631H5.55518V33.9424C5.55518 34.5898 5.32275 35.146 4.85791 35.6108C4.39307 36.0757 3.82861 36.3081 3.16455 36.3081C2.51709 36.3081 1.96094 36.0757 1.49609 35.6108C1.03125 35.146 0.798828 34.5898 0.798828 33.9424V14.7178ZM5.55518 23.9316H14.769C17.3091 23.9316 19.4839 23.0269 21.2935 21.2173C23.0864 19.4243 23.9829 17.2578 23.9829 14.7178C23.9829 12.1611 23.0864 9.98633 21.2935 8.19336C19.4839 6.38379 17.3091 5.479 14.769 5.479C12.229 5.479 10.0542 6.38379 8.24463 8.19336C6.45166 9.98633 5.55518 12.1611 5.55518 14.7178V23.9316ZM45.2993 7.86963C49.2339 7.86963 52.5874 9.25586 55.3599 12.0283C58.1323 14.8008 59.5186 18.1543 59.5186 22.0889V33.9175C59.5186 34.5815 59.2861 35.146 58.8213 35.6108C58.3564 36.0757 57.8003 36.3081 57.1528 36.3081C56.4888 36.3081 55.9326 36.0757 55.4844 35.6108C55.0195 35.146 54.7871 34.5815 54.7871 33.9175V32.6724C52.0811 35.0962 48.9185 36.3081 45.2993 36.3081C41.3813 36.3081 38.0278 34.9136 35.2388 32.1245C32.4663 29.3521 31.0801 26.0068 31.0801 22.0889C31.0801 18.1543 32.4663 14.8008 35.2388 12.0283C38.0278 9.25586 41.3813 7.86963 45.2993 7.86963ZM51.998 15.3652C50.1553 13.5225 47.9224 12.6011 45.2993 12.6011C42.6763 12.6011 40.4434 13.5225 38.6006 15.3652C36.7412 17.2246 35.8115 19.4658 35.8115 22.0889C35.8115 24.6953 36.7412 26.9282 38.6006 28.7876C40.4434 30.6304 42.6763 31.5518 45.2993 31.5518C47.9224 31.5518 50.1553 30.6304 51.998 28.7876C53.8574 26.9282 54.7871 24.6953 54.7871 22.0889C54.7871 19.4658 53.8574 17.2246 51.998 15.3652ZM92.9375 34.1665C92.9375 38.0845 91.5513 41.438 88.7788 44.2271C86.0063 46.9995 82.6528 48.3857 78.7183 48.3857C75.9126 48.3857 73.3394 47.6221 70.9985 46.0947C68.6411 44.5674 66.8896 42.5171 65.7441 39.9438C65.4785 39.3628 65.4619 38.7651 65.6943 38.1509C65.9268 37.5366 66.3418 37.0967 66.9395 36.8311C67.5371 36.5654 68.1348 36.5488 68.7324 36.7812C69.3467 37.0137 69.7866 37.4287 70.0522 38.0264C70.8159 39.7363 71.9863 41.106 73.5635 42.1353C75.124 43.1479 76.8423 43.6543 78.7183 43.6543C81.3413 43.6543 83.5742 42.7246 85.417 40.8652C87.2764 39.0225 88.2061 36.7896 88.2061 34.1665V32.6724C85.5 35.0962 82.3374 36.3081 78.7183 36.3081C74.8003 36.3081 71.4468 34.9136 68.6577 32.1245C65.8853 29.3521 64.499 26.0068 64.499 22.0889V10.2354C64.499 9.57129 64.7314 9.00684 65.1963 8.54199C65.6611 8.09375 66.2173 7.86963 66.8647 7.86963C67.5288 7.86963 68.085 8.09375 68.5332 8.54199C68.998 9.00684 69.2305 9.57129 69.2305 10.2354V22.0889C69.2305 24.6953 70.1602 26.9282 72.0195 28.7876C73.8623 30.6304 76.0952 31.5518 78.7183 31.5518C81.3413 31.5518 83.5742 30.6304 85.417 28.7876C87.2764 26.9282 88.2061 24.6953 88.2061 22.0889V10.2354C88.2061 9.57129 88.4385 9.00684 88.9033 8.54199C89.3516 8.09375 89.9077 7.86963 90.5718 7.86963C91.2192 7.86963 91.7754 8.09375 92.2402 8.54199C92.7051 9.00684 92.9375 9.57129 92.9375 10.2354V34.1665Z" fill="white"/>
<path d="M112.137 36.3081C108.219 36.3081 104.866 34.9136 102.077 32.1245C99.3042 29.3521 97.918 26.0068 97.918 22.0889V3.11328C97.918 2.46582 98.1504 1.90967 98.6152 1.44482C99.0801 0.97998 99.6362 0.747559 100.284 0.747559C100.948 0.747559 101.504 0.97998 101.952 1.44482C102.417 1.90967 102.649 2.46582 102.649 3.11328V11.4805C105.355 9.07324 108.518 7.86963 112.137 7.86963C116.072 7.86963 119.425 9.25586 122.198 12.0283C124.97 14.8008 126.356 18.1543 126.356 22.0889C126.356 26.0068 124.97 29.3521 122.198 32.1245C119.425 34.9136 116.072 36.3081 112.137 36.3081ZM105.438 28.7876C107.281 30.6304 109.514 31.5518 112.137 31.5518C114.76 31.5518 116.993 30.6304 118.836 28.7876C120.695 26.9282 121.625 24.6953 121.625 22.0889C121.625 19.4658 120.695 17.2246 118.836 15.3652C116.993 13.5225 114.76 12.6011 112.137 12.6011C109.514 12.6011 107.281 13.5225 105.438 15.3652C103.579 17.2246 102.649 19.4658 102.649 22.0889C102.649 24.6953 103.579 26.9282 105.438 28.7876ZM143.066 12.6011C140.443 12.6011 138.21 13.5225 136.367 15.3652C134.508 17.2246 133.578 19.4658 133.578 22.0889C133.578 24.6953 134.508 26.9282 136.367 28.7876C138.21 30.6304 140.443 31.5518 143.066 31.5518C145.689 31.5518 147.922 30.6304 149.765 28.7876C151.624 26.9282 152.554 24.6953 152.554 22.0889C152.554 19.4658 151.624 17.2246 149.765 15.3652C147.922 13.5225 145.689 12.6011 143.066 12.6011ZM133.005 12.0283C135.794 9.25586 139.148 7.86963 143.066 7.86963C147 7.86963 150.354 9.25586 153.126 12.0283C155.899 14.8008 157.285 18.1543 157.285 22.0889C157.285 26.0068 155.899 29.3521 153.126 32.1245C150.354 34.9136 147 36.3081 143.066 36.3081C139.148 36.3081 135.794 34.9136 133.005 32.1245C130.233 29.3521 128.847 26.0068 128.847 22.0889C128.847 18.1543 130.233 14.8008 133.005 12.0283ZM161.021 10.2354C161.021 9.57129 161.253 9.00684 161.718 8.54199C162.183 8.09375 162.739 7.86963 163.386 7.86963C164.05 7.86963 164.606 8.09375 165.055 8.54199C165.52 9.00684 165.752 9.57129 165.752 10.2354V10.3101C165.752 12.9331 166.682 15.166 168.541 17.0088C170.384 18.8516 172.608 19.7812 175.215 19.7979H175.265C177.871 19.7812 180.096 18.8516 181.938 17.0088C183.798 15.166 184.728 12.9331 184.728 10.3101V10.2354C184.728 9.57129 184.96 9.00684 185.425 8.54199C185.873 8.09375 186.429 7.86963 187.093 7.86963C187.741 7.86963 188.297 8.09375 188.762 8.54199C189.227 9.00684 189.459 9.57129 189.459 10.2354V10.3101C189.459 14.228 188.073 17.5815 185.3 20.3706C184.669 20.9849 183.989 21.541 183.258 22.0391C187.392 24.6289 189.459 28.5635 189.459 33.8428V33.9175C189.459 34.5815 189.227 35.146 188.762 35.6108C188.297 36.0757 187.741 36.3081 187.093 36.3081C186.429 36.3081 185.873 36.0757 185.425 35.6108C184.96 35.146 184.728 34.5815 184.728 33.9175V33.8428C184.728 31.7012 184.196 29.8667 183.134 28.3394C182.171 26.9448 180.859 25.9238 179.199 25.2764C177.971 24.7783 176.659 24.5293 175.265 24.5293H175.215C173.854 24.5293 172.575 24.7617 171.38 25.2266L171.28 25.2764C169.62 25.9238 168.309 26.9448 167.346 28.3394C166.283 29.8667 165.752 31.7012 165.752 33.8428V33.9175C165.752 34.5815 165.52 35.146 165.055 35.6108C164.606 36.0757 164.05 36.3081 163.386 36.3081C162.739 36.3081 162.183 36.0757 161.718 35.6108C161.253 35.146 161.021 34.5815 161.021 33.9175V33.8428C161.021 28.5635 163.087 24.6289 167.221 22.0391C166.491 21.541 165.81 20.9849 165.179 20.3706C162.407 17.5815 161.021 14.228 161.021 10.3101V10.2354Z" fill="#00A3FF"/>
</svg>
